# xmcd CD database file
#
# Track frame offsets:
#	182
#	93751
#	177951
#	234487
#	291188
#	311488
#
# Disc length: 4218 seconds
#
# Revision: 0
# Processed by: cddbd v1.5PL3 Copyright (c) Steve Scherf et al.
# Submitted via: CDex 1.51
#
DISCID=46107806
DTITLE=Simone Borowiak - Frau Rettich, die Czerni und ich CD2
DYEAR=2003
DGENRE=Lesung
TTITLE0=Frau Rettich, die Czerni und ich CD2
TTITLE1=Frau Rettich, die Czerni und ich CD2
TTITLE2=Frau Rettich, die Czerni und ich CD2
TTITLE3=Frau Rettich, die Czerni und ich CD2
TTITLE4=Frau Rettich, die Czerni und ich CD2
TTITLE5=Frau Rettich, die Czerni und ich CD2
EXTD=YEAR: 2003
EXTT0=
EXTT1=
EXTT2=
EXTT3=
EXTT4=
EXTT5=
PLAYORDER=
